# xmcd
#
# Track frame offsets:
#	150
#	28451
#	50541
#	73133
#	93633
#	131573
#	154639
#	179619
#
# Disc length: 2591 seconds
#
# Revision: 1
# Processed by: cddbd v1.5.1PL0 Copyright (c) Steve Scherf et al.
# Submitted via: audiograbber 1.83.01
#
DISCID=750a1d08
DTITLE=sister sledge - we  are family
DYEAR=1979
DGENRE=dance-pop
TTITLE0=He's The Greatest Dancer (samp
TTITLE1=Lost In Music
TTITLE2=Somebody Loves Me
TTITLE3=Thinking of You
TTITLE4=We Are Family (Album Version)
TTITLE5=Easier To Love
TTITLE6=You're A Friend To Me
TTITLE7=One More Time
EXTD=
EXTT0=
EXTT1=
EXTT2=
EXTT3=
EXTT4=
EXTT5=
EXTT6=
EXTT7=
PLAYORDER=
